<?xml version="1.0" encoding="UTF-8" standalone="no"?>
<!DOCTYPE svg PUBLIC "-//W3C//DTD SVG 1.1//EN"
 "http://www.w3.org/Graphics/SVG/1.1/DTD/svg11.dtd">
<!-- Generated by graphviz version 2.43.0 (0)
 -->
<!-- Title: %3 Pages: 1 -->
<svg width="1665pt" height="404pt"
 viewBox="0.00 0.00 1664.50 404.00" xmlns="http://www.w3.org/2000/svg" xmlns:xlink="http://www.w3.org/1999/xlink">
<g id="graph0" class="graph" transform="scale(1 1) rotate(0) translate(4 400)">
<title>%3</title>
<polygon fill="white" stroke="transparent" points="-4,4 -4,-400 1660.5,-400 1660.5,4 -4,4"/>
<!-- [root] aws_instance.this_my_ec2_instance (expand) -->
<g id="node1" class="node">
<title>[root] aws_instance.this_my_ec2_instance (expand)</title>
<polygon fill="none" stroke="black" points="1490,-252 1221,-252 1221,-216 1490,-216 1490,-252"/>
<text text-anchor="middle" x="1355.5" y="-230.3" font-family="Times,serif" font-size="14.00">aws_instance.this_my_ec2_instance</text>
</g>
<!-- [root] aws_key_pair.loginkey (expand) -->
<g id="node3" class="node">
<title>[root] aws_key_pair.loginkey (expand)</title>
<polygon fill="none" stroke="black" points="1472.5,-108 1298.5,-108 1298.5,-72 1472.5,-72 1472.5,-108"/>
<text text-anchor="middle" x="1385.5" y="-86.3" font-family="Times,serif" font-size="14.00">aws_key_pair.loginkey</text>
</g>
<!-- [root] aws_instance.this_my_ec2_instance (expand)&#45;&gt;[root] aws_key_pair.loginkey (expand) -->
<g id="edge1" class="edge">
<title>[root] aws_instance.this_my_ec2_instance (expand)&#45;&gt;[root] aws_key_pair.loginkey (expand)</title>
<path fill="none" stroke="black" d="M1416.91,-215.95C1434.34,-207.97 1451.33,-196.45 1461.5,-180 1469.91,-166.39 1468.9,-158.19 1461.5,-144 1455.03,-131.61 1444.2,-121.52 1432.71,-113.6"/>
<polygon fill="black" stroke="black" points="1434.59,-110.65 1424.28,-108.22 1430.82,-116.55 1434.59,-110.65"/>
</g>
<!-- [root] var.ami_id -->
<g id="node11" class="node">
<title>[root] var.ami_id</title>
<polygon fill="none" stroke="black" points="1287,-180 1204,-180 1204,-144 1293,-144 1293,-174 1287,-180"/>
<polyline fill="none" stroke="black" points="1287,-180 1287,-174 "/>
<polyline fill="none" stroke="black" points="1293,-174 1287,-174 "/>
<text text-anchor="middle" x="1248.5" y="-158.3" font-family="Times,serif" font-size="14.00">var.ami_id</text>
</g>
<!-- [root] aws_instance.this_my_ec2_instance (expand)&#45;&gt;[root] var.ami_id -->
<g id="edge2" class="edge">
<title>[root] aws_instance.this_my_ec2_instance (expand)&#45;&gt;[root] var.ami_id</title>
<path fill="none" stroke="black" d="M1329.32,-215.88C1315.46,-206.81 1298.26,-195.55 1283.29,-185.76"/>
<polygon fill="black" stroke="black" points="1285.06,-182.74 1274.78,-180.19 1281.23,-188.59 1285.06,-182.74"/>
</g>
<!-- [root] var.instance_type -->
<g id="node15" class="node">
<title>[root] var.instance_type</title>
<polygon fill="none" stroke="black" points="1446,-180 1311,-180 1311,-144 1452,-144 1452,-174 1446,-180"/>
<polyline fill="none" stroke="black" points="1446,-180 1446,-174 "/>
<polyline fill="none" stroke="black" points="1452,-174 1446,-174 "/>
<text text-anchor="middle" x="1381.5" y="-158.3" font-family="Times,serif" font-size="14.00">var.instance_type</text>
</g>
<!-- [root] aws_instance.this_my_ec2_instance (expand)&#45;&gt;[root] var.instance_type -->
<g id="edge3" class="edge">
<title>[root] aws_instance.this_my_ec2_instance (expand)&#45;&gt;[root] var.instance_type</title>
<path fill="none" stroke="black" d="M1361.93,-215.7C1364.86,-207.81 1368.39,-198.3 1371.64,-189.55"/>
<polygon fill="black" stroke="black" points="1374.95,-190.7 1375.15,-180.1 1368.38,-188.26 1374.95,-190.7"/>
</g>
<!-- [root] aws_internet_gateway.this&#45;igw (expand) -->
<g id="node2" class="node">
<title>[root] aws_internet_gateway.this&#45;igw (expand)</title>
<polygon fill="none" stroke="black" points="805,-180 570,-180 570,-144 805,-144 805,-180"/>
<text text-anchor="middle" x="687.5" y="-158.3" font-family="Times,serif" font-size="14.00">aws_internet_gateway.this&#45;igw</text>
</g>
<!-- [root] aws_vpc.this&#45;vpc (expand) -->
<g id="node9" class="node">
<title>[root] aws_vpc.this&#45;vpc (expand)</title>
<polygon fill="none" stroke="black" points="756,-108 619,-108 619,-72 756,-72 756,-108"/>
<text text-anchor="middle" x="687.5" y="-86.3" font-family="Times,serif" font-size="14.00">aws_vpc.this&#45;vpc</text>
</g>
<!-- [root] aws_internet_gateway.this&#45;igw (expand)&#45;&gt;[root] aws_vpc.this&#45;vpc (expand) -->
<g id="edge4" class="edge">
<title>[root] aws_internet_gateway.this&#45;igw (expand)&#45;&gt;[root] aws_vpc.this&#45;vpc (expand)</title>
<path fill="none" stroke="black" d="M687.5,-143.7C687.5,-135.98 687.5,-126.71 687.5,-118.11"/>
<polygon fill="black" stroke="black" points="691,-118.1 687.5,-108.1 684,-118.1 691,-118.1"/>
</g>
<!-- [root] provider[&quot;registry.terraform.io/hashicorp/aws&quot;] -->
<g id="node10" class="node">
<title>[root] provider[&quot;registry.terraform.io/hashicorp/aws&quot;]</title>
<polygon fill="none" stroke="black" points="1291.5,-36 966.24,-18 1291.5,0 1616.76,-18 1291.5,-36"/>
<text text-anchor="middle" x="1291.5" y="-14.3" font-family="Times,serif" font-size="14.00">provider[&quot;registry.terraform.io/hashicorp/aws&quot;]</text>
</g>
<!-- [root] aws_key_pair.loginkey (expand)&#45;&gt;[root] provider[&quot;registry.terraform.io/hashicorp/aws&quot;] -->
<g id="edge5" class="edge">
<title>[root] aws_key_pair.loginkey (expand)&#45;&gt;[root] provider[&quot;registry.terraform.io/hashicorp/aws&quot;]</title>
<path fill="none" stroke="black" d="M1362.26,-71.7C1349.87,-62.46 1334.47,-51 1321.21,-41.13"/>
<polygon fill="black" stroke="black" points="1322.97,-38.07 1312.86,-34.91 1318.79,-43.69 1322.97,-38.07"/>
</g>
<!-- [root] aws_route.this&#45;route&#45;public (expand) -->
<g id="node4" class="node">
<title>[root] aws_route.this&#45;route&#45;public (expand)</title>
<polygon fill="none" stroke="black" points="914.5,-252 702.5,-252 702.5,-216 914.5,-216 914.5,-252"/>
<text text-anchor="middle" x="808.5" y="-230.3" font-family="Times,serif" font-size="14.00">aws_route.this&#45;route&#45;public</text>
</g>
<!-- [root] aws_route.this&#45;route&#45;public (expand)&#45;&gt;[root] aws_internet_gateway.this&#45;igw (expand) -->
<g id="edge6" class="edge">
<title>[root] aws_route.this&#45;route&#45;public (expand)&#45;&gt;[root] aws_internet_gateway.this&#45;igw (expand)</title>
<path fill="none" stroke="black" d="M778.9,-215.88C762.93,-206.64 743.04,-195.13 725.89,-185.21"/>
<polygon fill="black" stroke="black" points="727.62,-182.17 717.21,-180.19 724.12,-188.23 727.62,-182.17"/>
</g>
<!-- [root] aws_route_table.this&#45;RT&#45;public (expand) -->
<g id="node5" class="node">
<title>[root] aws_route_table.this&#45;RT&#45;public (expand)</title>
<polygon fill="none" stroke="black" points="551.5,-180 317.5,-180 317.5,-144 551.5,-144 551.5,-180"/>
<text text-anchor="middle" x="434.5" y="-158.3" font-family="Times,serif" font-size="14.00">aws_route_table.this&#45;RT&#45;public</text>
</g>
<!-- [root] aws_route.this&#45;route&#45;public (expand)&#45;&gt;[root] aws_route_table.this&#45;RT&#45;public (expand) -->
<g id="edge7" class="edge">
<title>[root] aws_route.this&#45;route&#45;public (expand)&#45;&gt;[root] aws_route_table.this&#45;RT&#45;public (expand)</title>
<path fill="none" stroke="black" d="M717.49,-215.97C662.52,-205.68 592.36,-192.55 535.66,-181.93"/>
<polygon fill="black" stroke="black" points="536.07,-178.45 525.6,-180.05 534.78,-185.33 536.07,-178.45"/>
</g>
<!-- [root] var.destination_cidr_block -->
<g id="node14" class="node">
<title>[root] var.destination_cidr_block</title>
<polygon fill="none" stroke="black" points="1019.5,-180 823.5,-180 823.5,-144 1025.5,-144 1025.5,-174 1019.5,-180"/>
<polyline fill="none" stroke="black" points="1019.5,-180 1019.5,-174 "/>
<polyline fill="none" stroke="black" points="1025.5,-174 1019.5,-174 "/>
<text text-anchor="middle" x="924.5" y="-158.3" font-family="Times,serif" font-size="14.00">var.destination_cidr_block</text>
</g>
<!-- [root] aws_route.this&#45;route&#45;public (expand)&#45;&gt;[root] var.destination_cidr_block -->
<g id="edge8" class="edge">
<title>[root] aws_route.this&#45;route&#45;public (expand)&#45;&gt;[root] var.destination_cidr_block</title>
<path fill="none" stroke="black" d="M836.88,-215.88C852.04,-206.72 870.91,-195.34 887.24,-185.48"/>
<polygon fill="black" stroke="black" points="889.26,-188.35 896.01,-180.19 885.64,-182.36 889.26,-188.35"/>
</g>
<!-- [root] aws_route_table.this&#45;RT&#45;public (expand)&#45;&gt;[root] aws_vpc.this&#45;vpc (expand) -->
<g id="edge9" class="edge">
<title>[root] aws_route_table.this&#45;RT&#45;public (expand)&#45;&gt;[root] aws_vpc.this&#45;vpc (expand)</title>
<path fill="none" stroke="black" d="M496.07,-143.97C532.19,-133.97 577.99,-121.3 615.74,-110.85"/>
<polygon fill="black" stroke="black" points="616.95,-114.15 625.66,-108.11 615.09,-107.4 616.95,-114.15"/>
</g>
<!-- [root] aws_route_table_association.this&#45;RTAS&#45;public (expand) -->
<g id="node6" class="node">
<title>[root] aws_route_table_association.this&#45;RTAS&#45;public (expand)</title>
<polygon fill="none" stroke="black" points="658,-252 317,-252 317,-216 658,-216 658,-252"/>
<text text-anchor="middle" x="487.5" y="-230.3" font-family="Times,serif" font-size="14.00">aws_route_table_association.this&#45;RTAS&#45;public</text>
</g>
<!-- [root] aws_route_table_association.this&#45;RTAS&#45;public (expand)&#45;&gt;[root] aws_route_table.this&#45;RT&#45;public (expand) -->
<g id="edge10" class="edge">
<title>[root] aws_route_table_association.this&#45;RTAS&#45;public (expand)&#45;&gt;[root] aws_route_table.this&#45;RT&#45;public (expand)</title>
<path fill="none" stroke="black" d="M474.4,-215.7C468.11,-207.39 460.45,-197.28 453.54,-188.14"/>
<polygon fill="black" stroke="black" points="456.28,-185.96 447.45,-180.1 450.7,-190.19 456.28,-185.96"/>
</g>
<!-- [root] aws_subnet.this&#45;subnet&#45;public01 (expand) -->
<g id="node8" class="node">
<title>[root] aws_subnet.this&#45;subnet&#45;public01 (expand)</title>
<polygon fill="none" stroke="black" points="299,-180 48,-180 48,-144 299,-144 299,-180"/>
<text text-anchor="middle" x="173.5" y="-158.3" font-family="Times,serif" font-size="14.00">aws_subnet.this&#45;subnet&#45;public01</text>
</g>
<!-- [root] aws_route_table_association.this&#45;RTAS&#45;public (expand)&#45;&gt;[root] aws_subnet.this&#45;subnet&#45;public01 (expand) -->
<g id="edge11" class="edge">
<title>[root] aws_route_table_association.this&#45;RTAS&#45;public (expand)&#45;&gt;[root] aws_subnet.this&#45;subnet&#45;public01 (expand)</title>
<path fill="none" stroke="black" d="M411.09,-215.97C365.41,-205.78 307.26,-192.82 259.91,-182.26"/>
<polygon fill="black" stroke="black" points="260.5,-178.81 249.98,-180.05 258.98,-185.64 260.5,-178.81"/>
</g>
<!-- [root] aws_security_group.this_my_sg (expand) -->
<g id="node7" class="node">
<title>[root] aws_security_group.this_my_sg (expand)</title>
<polygon fill="none" stroke="black" points="1203,-252 962,-252 962,-216 1203,-216 1203,-252"/>
<text text-anchor="middle" x="1082.5" y="-230.3" font-family="Times,serif" font-size="14.00">aws_security_group.this_my_sg</text>
</g>
<!-- [root] aws_security_group.this_my_sg (expand)&#45;&gt;[root] aws_vpc.this&#45;vpc (expand) -->
<g id="edge12" class="edge">
<title>[root] aws_security_group.this_my_sg (expand)&#45;&gt;[root] aws_vpc.this&#45;vpc (expand)</title>
<path fill="none" stroke="black" d="M1119.89,-215.8C1134.04,-207.2 1148.63,-195.32 1156.5,-180 1163.81,-165.77 1167.16,-155.93 1156.5,-144 1131.02,-115.48 893.27,-100.37 766.41,-94.28"/>
<polygon fill="black" stroke="black" points="766.51,-90.78 756.35,-93.8 766.18,-97.77 766.51,-90.78"/>
</g>
<!-- [root] var.ssh_port -->
<g id="node17" class="node">
<title>[root] var.ssh_port</title>
<polygon fill="none" stroke="black" points="1141.5,-180 1043.5,-180 1043.5,-144 1147.5,-144 1147.5,-174 1141.5,-180"/>
<polyline fill="none" stroke="black" points="1141.5,-180 1141.5,-174 "/>
<polyline fill="none" stroke="black" points="1147.5,-174 1141.5,-174 "/>
<text text-anchor="middle" x="1095.5" y="-158.3" font-family="Times,serif" font-size="14.00">var.ssh_port</text>
</g>
<!-- [root] aws_security_group.this_my_sg (expand)&#45;&gt;[root] var.ssh_port -->
<g id="edge13" class="edge">
<title>[root] aws_security_group.this_my_sg (expand)&#45;&gt;[root] var.ssh_port</title>
<path fill="none" stroke="black" d="M1085.71,-215.7C1087.15,-207.98 1088.87,-198.71 1090.46,-190.11"/>
<polygon fill="black" stroke="black" points="1093.94,-190.58 1092.32,-180.1 1087.06,-189.3 1093.94,-190.58"/>
</g>
<!-- [root] aws_subnet.this&#45;subnet&#45;public01 (expand)&#45;&gt;[root] aws_vpc.this&#45;vpc (expand) -->
<g id="edge14" class="edge">
<title>[root] aws_subnet.this&#45;subnet&#45;public01 (expand)&#45;&gt;[root] aws_vpc.this&#45;vpc (expand)</title>
<path fill="none" stroke="black" d="M298.58,-143.97C395.28,-130.8 526.18,-112.97 608.73,-101.73"/>
<polygon fill="black" stroke="black" points="609.37,-105.17 618.8,-100.36 608.42,-98.24 609.37,-105.17"/>
</g>
<!-- [root] var.availability_zone -->
<g id="node12" class="node">
<title>[root] var.availability_zone</title>
<polygon fill="none" stroke="black" points="155,-108 0,-108 0,-72 161,-72 161,-102 155,-108"/>
<polyline fill="none" stroke="black" points="155,-108 155,-102 "/>
<polyline fill="none" stroke="black" points="161,-102 155,-102 "/>
<text text-anchor="middle" x="80.5" y="-86.3" font-family="Times,serif" font-size="14.00">var.availability_zone</text>
</g>
<!-- [root] aws_subnet.this&#45;subnet&#45;public01 (expand)&#45;&gt;[root] var.availability_zone -->
<g id="edge15" class="edge">
<title>[root] aws_subnet.this&#45;subnet&#45;public01 (expand)&#45;&gt;[root] var.availability_zone</title>
<path fill="none" stroke="black" d="M150.51,-143.7C138.69,-134.8 124.11,-123.82 111.32,-114.2"/>
<polygon fill="black" stroke="black" points="113.32,-111.32 103.22,-108.1 109.11,-116.91 113.32,-111.32"/>
</g>
<!-- [root] var.public_subnet_cidr -->
<g id="node16" class="node">
<title>[root] var.public_subnet_cidr</title>
<polygon fill="none" stroke="black" points="349.5,-108 179.5,-108 179.5,-72 355.5,-72 355.5,-102 349.5,-108"/>
<polyline fill="none" stroke="black" points="349.5,-108 349.5,-102 "/>
<polyline fill="none" stroke="black" points="355.5,-102 349.5,-102 "/>
<text text-anchor="middle" x="267.5" y="-86.3" font-family="Times,serif" font-size="14.00">var.public_subnet_cidr</text>
</g>
<!-- [root] aws_subnet.this&#45;subnet&#45;public01 (expand)&#45;&gt;[root] var.public_subnet_cidr -->
<g id="edge16" class="edge">
<title>[root] aws_subnet.this&#45;subnet&#45;public01 (expand)&#45;&gt;[root] var.public_subnet_cidr</title>
<path fill="none" stroke="black" d="M196.74,-143.7C208.69,-134.8 223.42,-123.82 236.35,-114.2"/>
<polygon fill="black" stroke="black" points="238.6,-116.88 244.53,-108.1 234.42,-111.27 238.6,-116.88"/>
</g>
<!-- [root] aws_vpc.this&#45;vpc (expand)&#45;&gt;[root] provider[&quot;registry.terraform.io/hashicorp/aws&quot;] -->
<g id="edge17" class="edge">
<title>[root] aws_vpc.this&#45;vpc (expand)&#45;&gt;[root] provider[&quot;registry.terraform.io/hashicorp/aws&quot;]</title>
<path fill="none" stroke="black" d="M756.2,-81.04C860.03,-69 1057.93,-46.07 1181.84,-31.71"/>
<polygon fill="black" stroke="black" points="1182.58,-35.15 1192.11,-30.52 1181.78,-28.19 1182.58,-35.15"/>
</g>
<!-- [root] var.vpc_cidr_block -->
<g id="node18" class="node">
<title>[root] var.vpc_cidr_block</title>
<polygon fill="none" stroke="black" points="754.5,-36 614.5,-36 614.5,0 760.5,0 760.5,-30 754.5,-36"/>
<polyline fill="none" stroke="black" points="754.5,-36 754.5,-30 "/>
<polyline fill="none" stroke="black" points="760.5,-30 754.5,-30 "/>
<text text-anchor="middle" x="687.5" y="-14.3" font-family="Times,serif" font-size="14.00">var.vpc_cidr_block</text>
</g>
<!-- [root] aws_vpc.this&#45;vpc (expand)&#45;&gt;[root] var.vpc_cidr_block -->
<g id="edge18" class="edge">
<title>[root] aws_vpc.this&#45;vpc (expand)&#45;&gt;[root] var.vpc_cidr_block</title>
<path fill="none" stroke="black" d="M687.5,-71.7C687.5,-63.98 687.5,-54.71 687.5,-46.11"/>
<polygon fill="black" stroke="black" points="691,-46.1 687.5,-36.1 684,-46.1 691,-46.1"/>
</g>
<!-- [root] var.aws_key_name -->
<g id="node13" class="node">
<title>[root] var.aws_key_name</title>
<polygon fill="none" stroke="black" points="1650.5,-252 1508.5,-252 1508.5,-216 1656.5,-216 1656.5,-246 1650.5,-252"/>
<polyline fill="none" stroke="black" points="1650.5,-252 1650.5,-246 "/>
<polyline fill="none" stroke="black" points="1656.5,-246 1650.5,-246 "/>
<text text-anchor="middle" x="1582.5" y="-230.3" font-family="Times,serif" font-size="14.00">var.aws_key_name</text>
</g>
<!-- [root] meta.count&#45;boundary (EachMode fixup) -->
<g id="node19" class="node">
<title>[root] meta.count&#45;boundary (EachMode fixup)</title>
<ellipse fill="none" stroke="black" cx="1341.5" cy="-306" rx="222.86" ry="18"/>
<text text-anchor="middle" x="1341.5" y="-302.3" font-family="Times,serif" font-size="14.00">[root] meta.count&#45;boundary (EachMode fixup)</text>
</g>
<!-- [root] meta.count&#45;boundary (EachMode fixup)&#45;&gt;[root] aws_instance.this_my_ec2_instance (expand) -->
<g id="edge19" class="edge">
<title>[root] meta.count&#45;boundary (EachMode fixup)&#45;&gt;[root] aws_instance.this_my_ec2_instance (expand)</title>
<path fill="none" stroke="black" d="M1344.96,-287.7C1346.5,-279.98 1348.36,-270.71 1350.08,-262.11"/>
<polygon fill="black" stroke="black" points="1353.55,-262.6 1352.08,-252.1 1346.69,-261.22 1353.55,-262.6"/>
</g>
<!-- [root] meta.count&#45;boundary (EachMode fixup)&#45;&gt;[root] aws_route.this&#45;route&#45;public (expand) -->
<g id="edge20" class="edge">
<title>[root] meta.count&#45;boundary (EachMode fixup)&#45;&gt;[root] aws_route.this&#45;route&#45;public (expand)</title>
<path fill="none" stroke="black" d="M1230.09,-290.37C1140.67,-278.62 1015.52,-262.19 924.82,-250.28"/>
<polygon fill="black" stroke="black" points="925.14,-246.79 914.77,-248.96 924.23,-253.73 925.14,-246.79"/>
</g>
<!-- [root] meta.count&#45;boundary (EachMode fixup)&#45;&gt;[root] aws_route_table_association.this&#45;RTAS&#45;public (expand) -->
<g id="edge21" class="edge">
<title>[root] meta.count&#45;boundary (EachMode fixup)&#45;&gt;[root] aws_route_table_association.this&#45;RTAS&#45;public (expand)</title>
<path fill="none" stroke="black" d="M1190.92,-292.72C1059.59,-281.99 863.93,-266 693.5,-252 685.21,-251.32 676.73,-250.62 668.17,-249.92"/>
<polygon fill="black" stroke="black" points="668.34,-246.42 658.08,-249.09 667.76,-253.4 668.34,-246.42"/>
</g>
<!-- [root] meta.count&#45;boundary (EachMode fixup)&#45;&gt;[root] aws_security_group.this_my_sg (expand) -->
<g id="edge22" class="edge">
<title>[root] meta.count&#45;boundary (EachMode fixup)&#45;&gt;[root] aws_security_group.this_my_sg (expand)</title>
<path fill="none" stroke="black" d="M1280.78,-288.59C1243.28,-278.46 1194.96,-265.39 1155.4,-254.7"/>
<polygon fill="black" stroke="black" points="1156.11,-251.27 1145.55,-252.04 1154.29,-258.03 1156.11,-251.27"/>
</g>
<!-- [root] meta.count&#45;boundary (EachMode fixup)&#45;&gt;[root] var.aws_key_name -->
<g id="edge23" class="edge">
<title>[root] meta.count&#45;boundary (EachMode fixup)&#45;&gt;[root] var.aws_key_name</title>
<path fill="none" stroke="black" d="M1398.31,-288.5C1432.78,-278.49 1477.01,-265.64 1513.49,-255.05"/>
<polygon fill="black" stroke="black" points="1514.93,-258.27 1523.56,-252.12 1512.98,-251.55 1514.93,-258.27"/>
</g>
<!-- [root] provider[&quot;registry.terraform.io/hashicorp/aws&quot;] (close) -->
<g id="node20" class="node">
<title>[root] provider[&quot;registry.terraform.io/hashicorp/aws&quot;] (close)</title>
<ellipse fill="none" stroke="black" cx="808.5" cy="-306" rx="291.65" ry="18"/>
<text text-anchor="middle" x="808.5" y="-302.3" font-family="Times,serif" font-size="14.00">[root] provider[&quot;registry.terraform.io/hashicorp/aws&quot;] (close)</text>
</g>
<!-- [root] provider[&quot;registry.terraform.io/hashicorp/aws&quot;] (close)&#45;&gt;[root] aws_instance.this_my_ec2_instance (expand) -->
<g id="edge24" class="edge">
<title>[root] provider[&quot;registry.terraform.io/hashicorp/aws&quot;] (close)&#45;&gt;[root] aws_instance.this_my_ec2_instance (expand)</title>
<path fill="none" stroke="black" d="M928.88,-289.59C1012.48,-278.9 1124.23,-264.6 1212.39,-253.31"/>
<polygon fill="black" stroke="black" points="1213,-256.76 1222.47,-252.02 1212.11,-249.82 1213,-256.76"/>
</g>
<!-- [root] provider[&quot;registry.terraform.io/hashicorp/aws&quot;] (close)&#45;&gt;[root] aws_route.this&#45;route&#45;public (expand) -->
<g id="edge25" class="edge">
<title>[root] provider[&quot;registry.terraform.io/hashicorp/aws&quot;] (close)&#45;&gt;[root] aws_route.this&#45;route&#45;public (expand)</title>
<path fill="none" stroke="black" d="M808.5,-287.7C808.5,-279.98 808.5,-270.71 808.5,-262.11"/>
<polygon fill="black" stroke="black" points="812,-262.1 808.5,-252.1 805,-262.1 812,-262.1"/>
</g>
<!-- [root] provider[&quot;registry.terraform.io/hashicorp/aws&quot;] (close)&#45;&gt;[root] aws_route_table_association.this&#45;RTAS&#45;public (expand) -->
<g id="edge26" class="edge">
<title>[root] provider[&quot;registry.terraform.io/hashicorp/aws&quot;] (close)&#45;&gt;[root] aws_route_table_association.this&#45;RTAS&#45;public (expand)</title>
<path fill="none" stroke="black" d="M733.24,-288.59C686.08,-278.31 625.1,-265.01 575.68,-254.23"/>
<polygon fill="black" stroke="black" points="576.16,-250.75 565.64,-252.04 574.67,-257.59 576.16,-250.75"/>
</g>
<!-- [root] provider[&quot;registry.terraform.io/hashicorp/aws&quot;] (close)&#45;&gt;[root] aws_security_group.this_my_sg (expand) -->
<g id="edge27" class="edge">
<title>[root] provider[&quot;registry.terraform.io/hashicorp/aws&quot;] (close)&#45;&gt;[root] aws_security_group.this_my_sg (expand)</title>
<path fill="none" stroke="black" d="M873.43,-288.41C913.14,-278.27 964.13,-265.24 1005.81,-254.59"/>
<polygon fill="black" stroke="black" points="1006.83,-257.94 1015.65,-252.08 1005.09,-251.16 1006.83,-257.94"/>
</g>
<!-- [root] root -->
<g id="node21" class="node">
<title>[root] root</title>
<ellipse fill="none" stroke="black" cx="1074.5" cy="-378" rx="58.49" ry="18"/>
<text text-anchor="middle" x="1074.5" y="-374.3" font-family="Times,serif" font-size="14.00">[root] root</text>
</g>
<!-- [root] root&#45;&gt;[root] meta.count&#45;boundary (EachMode fixup) -->
<g id="edge28" class="edge">
<title>[root] root&#45;&gt;[root] meta.count&#45;boundary (EachMode fixup)</title>
<path fill="none" stroke="black" d="M1117.4,-365.75C1158.36,-355.01 1220.86,-338.63 1269.46,-325.89"/>
<polygon fill="black" stroke="black" points="1270.51,-329.23 1279.3,-323.31 1268.74,-322.46 1270.51,-329.23"/>
</g>
<!-- [root] root&#45;&gt;[root] provider[&quot;registry.terraform.io/hashicorp/aws&quot;] (close) -->
<g id="edge29" class="edge">
<title>[root] root&#45;&gt;[root] provider[&quot;registry.terraform.io/hashicorp/aws&quot;] (close)</title>
<path fill="none" stroke="black" d="M1031.47,-365.68C990.96,-355.01 929.48,-338.84 881.33,-326.17"/>
<polygon fill="black" stroke="black" points="882.14,-322.76 871.58,-323.6 880.36,-329.53 882.14,-322.76"/>
</g>
</g>
</svg>
